<svg width="264" height="29" viewBox="0 0 264 29" fill="none" xmlns="http://www.w3.org/2000/svg">
<g filter="url(#filter0_d_30_70)">
<path d="M0.44 26.44V4.08H4V0.559999H15.84V4.08H19.44V15.96H15.84V19.48H14.12V21.48H17.64V26.44H12.96V23H9.32V19.48H5.16V26.44H0.44ZM5.16 14.48H14.68V5.56H5.16V14.48ZM26.3072 26.44V7.56H29.8672V4.08H33.3872V0.559999H38.1872V4.08H41.7072V7.56H45.3072V26.44H40.5472V19.48H31.0272V26.44H26.3072ZM31.0272 14.48H40.5472V9.04H36.9872V5.56H34.5872V9.04H31.0272V14.48ZM52.1744 26.44V4.08H55.7344V0.559999H67.5744V4.08H71.1744V15.96H67.5744V19.48H56.8944V26.44H52.1744ZM56.8944 14.48H66.4144V5.56H56.8944V14.48ZM78.0416 26.44V21.48H81.6016V5.56H78.0416V0.559999H89.9216V5.56H86.3216V21.48H89.9216V26.44H78.0416ZM96.7994 26.44V0.559999H108.679V4.08H112.199V7.56H115.799V19.48H112.199V23H108.679V26.44H96.7994ZM101.519 21.48H107.479V18H111.039V9.04H107.479V5.56H101.519V21.48ZM121.267 18.48V13.48H133.147V18.48H121.267ZM142.484 26.44V23H138.924V18H143.644V21.48H153.164V15.96H142.484V12.52H138.924V4.08H142.484V0.559999H154.324V4.08H157.924V9.04H153.164V5.56H143.644V11.04H154.324V14.48H157.924V23H154.324V26.44H142.484ZM164.792 26.44V0.559999H169.512V11.04H171.872V7.56H176.672V11.04H179.032V0.559999H183.792V26.44H179.032V15.96H169.512V26.44H164.792ZM190.659 26.44V7.56H194.219V4.08H197.739V0.559999H202.539V4.08H206.059V7.56H209.659V26.44H204.899V19.48H195.379V26.44H190.659ZM195.379 14.48H204.899V9.04H201.339V5.56H198.939V9.04H195.379V14.48ZM216.526 26.44V4.08H220.086V0.559999H231.926V4.08H235.526V15.96H231.926V19.48H230.206V21.48H233.726V26.44H229.046V23H225.406V19.48H221.246V26.44H216.526ZM221.246 14.48H230.766V5.56H221.246V14.48ZM245.953 26.44V23H242.393V4.08H245.953V0.559999H257.793V4.08H261.393V9.04H256.633V5.56H247.113V11.04H254.273V15.96H247.113V21.48H256.633V18H261.393V23H257.793V26.44H245.953Z" fill="white"/>
</g>
<defs>
<filter id="filter0_d_30_70" x="0.440002" y="0.560059" width="262.953" height="27.8799" filterUnits="userSpaceOnUse" color-interpolation-filters="sRGB">
<feFlood flood-opacity="0" result="BackgroundImageFix"/>
<feColorMatrix in="SourceAlpha" type="matrix" values="0 0 0 0 0 0 0 0 0 0 0 0 0 0 0 0 0 0 127 0" result="hardAlpha"/>
<feOffset dx="2" dy="2"/>
<feComposite in2="hardAlpha" operator="out"/>
<feColorMatrix type="matrix" values="0 0 0 0 0.116667 0 0 0 0 1 0 0 0 0 0 0 0 0 1 0"/>
<feBlend mode="normal" in2="BackgroundImageFix" result="effect1_dropShadow_30_70"/>
<feBlend mode="normal" in="SourceGraphic" in2="effect1_dropShadow_30_70" result="shape"/>
</filter>
</defs>
</svg>
